<?xml version="1.0" encoding="utf-8"?>
<!-- Generator: Adobe Illustrator 25.4.1, SVG Export Plug-In . SVG Version: 6.00 Build 0)  -->
<svg version="1.1" id="Слой_1" xmlns="http://www.w3.org/2000/svg" xmlns:xlink="http://www.w3.org/1999/xlink" x="0px" y="0px"
	 viewBox="0 0 50 50" style="enable-background:new 0 0 50 50;" xml:space="preserve">
<style type="text/css">
	.st0{
		fill:none;
		stroke:#ffffff;
		stroke-linejoin:round;
		}
	.st1{
		fill:none;
		stroke:#ffffff;
		stroke-width:0.5;}
</style>
<g>
	<path class="st0" d="M34.42,36.05c-0.39-0.77,0.93-1.81,2.32-2.28s2.89-0.58,3.47-0.58c1.54-1.16,4.17-3.83,2.32-5.22
		c-1.85-1.39-2.32-3.29-2.32-4.06c0.46-0.93-2.89-2.71-4.63-3.48c-0.93-0.46-1.16-3.29-1.16-4.64c-1.16,0.58-3.82,2.55-5.21,5.8
		c-0.96,0.97-3.05,5.7-3.05,5.7"/>
	<path class="st0" d="M34.42,36.05c-0.39-0.77,0.93-1.81,2.32-2.28s2.89-0.58,3.47-0.58c1.54-1.16,4.17-3.83,2.32-5.22
		c-1.85-1.39-2.32-3.29-2.32-4.06c0.46-0.93-2.89-2.71-4.63-3.48c-0.93-0.46-1.16-3.29-1.16-4.64c-1.16,0.58-3.82,2.55-5.21,5.8
		c-0.96,0.97-3.05,5.7-3.05,5.7"/>
	<path class="st0" d="M37.44,41.93l0.21-0.63l-7.5-1.5l-0.1,0.61 M37.44,41.93l4.21,0.87l-1,2l-3.9-0.81 M37.44,41.93l-0.28,0.83
		l-0.41,1.23 M36.76,43.98l-0.1,0.31l-7-1.5l0.05-0.29 M30.05,40.41l-22.4-4.61l-0.5,2l22.55,4.71 M30.05,40.41l-0.35,2.1"/>
	<path class="st0" d="M40.15,42.29l2-2.5l-15-7.5c0.36-0.53,0.45-0.8,0.53-1.43c0.08-0.63,0.01-1.28-0.21-1.88
		c-0.22-0.6-0.58-1.14-1.05-1.57c-0.47-0.43-0.66-0.45-1.27-0.62l9-20c-3.43-1.65-6.87-2.29-10.66-1.89
		c-3.79,0.4-7.39,1.85-10.4,4.19c-3.01,2.34-5.31,5.46-6.64,9.04c-1.33,3.57-2.04,7.93-1.29,11.66c0.8,0,1.65,0.27,1.98,0.41
		c0.71,0.31,1.34,0.77,1.84,1.37c0.5,0.59,0.86,1.29,1.04,2.05c0.18,0.75,0.19,1.54,0.02,2.3"/>
	<path class="st0" d="M21.77,31.12c-0.07-0.2-0.26-0.33-0.47-0.33h-1.65v-1.07h1.74c0.19,0,0.37-0.11,0.45-0.29
		c0.2-0.42,0.53-0.76,0.95-0.95c0.42-0.2,0.89-0.24,1.34-0.13c0.45,0.11,0.85,0.38,1.12,0.75c0.28,0.37,0.41,0.83,0.39,1.29
		c-0.02,0.46-0.2,0.9-0.51,1.25c-0.31,0.34-0.73,0.57-1.19,0.64c-0.46,0.07-0.92-0.02-1.32-0.26C22.16,31.73,21.91,31.5,21.77,31.12
		z"/>
	<path class="st1" d="M40.66,38.94c1.9-2.25,3.25-4.9,3.95-7.76c0.7-2.86,0.72-5.84,0.07-8.71s-1.96-5.55-3.82-7.82
		c-1.86-2.28-5.02-4.65-7.7-5.86"/>
</g>
</svg>
